<svg width="40" height="40" viewBox="0 0 40 40" fill="none" xmlns="http://www.w3.org/2000/svg">
<mask id="mask0_5_19" style="mask-type:alpha" maskUnits="userSpaceOnUse" x="0" y="0" width="40" height="40">
<rect width="40" height="40" fill="#D9D9D9"/>
</mask>
<g mask="url(#mask0_5_19)">
<path d="M33.0417 36.0833L22.4583 25.5C21.625 26.1389 20.6044 26.6455 19.3967 27.02C18.1878 27.3955 16.9583 27.5833 15.7083 27.5833C12.4028 27.5833 9.60444 26.4378 7.31333 24.1467C5.02111 21.8544 3.875 19.0555 3.875 15.75C3.875 12.4444 5.02111 9.64555 7.31333 7.35332C9.60444 5.06221 12.4028 3.91666 15.7083 3.91666C19.0139 3.91666 21.8128 5.06221 24.105 7.35332C26.3961 9.64555 27.5417 12.4444 27.5417 15.75C27.5417 17 27.3683 18.1944 27.0217 19.3333C26.6739 20.4722 26.1667 21.4861 25.5 22.375L36.125 33L33.0417 36.0833ZM15.7083 23.1667C17.7917 23.1667 19.5489 22.4511 20.98 21.02C22.41 19.59 23.125 17.8333 23.125 15.75C23.125 13.6667 22.41 11.9094 20.98 10.4783C19.5489 9.04832 17.7917 8.33332 15.7083 8.33332C13.625 8.33332 11.8683 9.04832 10.4383 10.4783C9.00722 11.9094 8.29167 13.6667 8.29167 15.75C8.29167 17.8333 9.00722 19.59 10.4383 21.02C11.8683 22.4511 13.625 23.1667 15.7083 23.1667Z" fill="#201A23" fill-opacity="0.54"/>
</g>
</svg>
